<svg width="114" height="268" viewBox="0 0 114 268" fill="none" xmlns="http://www.w3.org/2000/svg">
<g filter="url(#filter0_ii_3_1819)">
<path d="M6.21994 41.4251C6.0139 28.8129 13.8929 17.5461 25.7334 13.1395L26.5693 12.8284C43.8753 6.38768 62.8081 5.91815 80.3474 11.4947C91.9328 15.1782 99.9897 25.6605 100.562 37.823C101.566 59.1814 103.24 95.5111 105.011 137.235C106.483 171.893 106.935 206.76 107.059 229.547C107.14 244.64 96.4922 257.64 81.7069 260.733L77.1937 261.677C66.4814 263.918 55.4612 264.189 44.6729 262.478L42.8916 262.195C28.0487 259.841 16.9087 247.454 16.0637 232.437C14.9082 211.9 13.0329 180.217 10.4441 141.617C7.57464 98.8306 6.56907 62.7963 6.21994 41.4251Z" fill="url(#paint0_linear_3_1819)"/>
</g>
<path d="M18.1973 87.3927C15.7835 77.9992 21.081 67.9536 30.4197 65.2249L31.1815 65.0022C46.3839 60.5601 62.4517 60.134 77.8132 63.7655C86.9161 65.9175 92.4374 75.3056 90.6763 84.5219C87.8863 99.1225 84.8129 121.941 86.0231 147.734C87.0286 169.162 91.0331 190.607 94.4521 205.63C96.9351 216.54 89.872 227.731 78.8123 229.587L76.9801 229.894C65.4469 231.829 53.7107 232.141 42.1133 230.819C31.6067 229.622 24.569 218.982 26.3148 208.529C28.6254 194.693 30.5856 174.454 28.6771 150.318C26.5967 124.007 21.8785 101.719 18.1973 87.3927Z" fill="#A7A5A5"/>
<g filter="url(#filter1_di_3_1819)">
<path fill-rule="evenodd" clip-rule="evenodd" d="M12.4775 49.5384C12.6317 34.995 20.9351 21.7053 33.7745 14.8024C45.0858 8.72119 58.6069 7.99871 70.3968 12.9309C84.3 18.7472 93.6742 31.9153 94.5723 46.9917C95.0005 54.1794 95.4931 62.552 96.0117 71.564C96.0306 71.8924 95.5977 72.0539 95.3834 71.8043C95.1675 71.5527 94.7704 71.76 94.8222 72.0875C95.1358 74.0721 95.1432 76.1318 94.8064 78.194C92.1656 94.3605 89.1433 120.552 90.5637 150.361C91.6899 173.996 96.1389 197.648 99.9917 214.4C100.692 217.446 100.743 220.512 100.235 223.44C100.218 223.535 100.34 223.591 100.4 223.514C100.455 223.442 100.57 223.483 100.569 223.573C100.473 228.986 100.367 233.632 100.277 237.215C100.153 242.089 97.131 246.398 92.6076 248.241L90.6447 249.041C71.4927 256.845 50.2197 257.531 30.6946 250.974C26.4633 249.553 23.4538 245.835 22.9877 241.389C22.5733 237.436 22.0136 232.007 21.3614 225.458C21.3231 225.073 21.86 224.886 22.0884 225.198C22.313 225.504 22.7819 225.279 22.7229 224.904C22.3525 222.549 22.3449 220.111 22.7507 217.684C25.3329 202.24 27.4747 179.873 25.3367 153.27C22.9059 123.024 17.2997 97.5363 13.0673 81.5965C12.8422 80.7489 12.6785 79.8959 12.5737 79.043C12.5675 78.9933 12.4982 78.9861 12.4832 79.034C12.4671 79.0854 12.3887 79.0739 12.3884 79.02C12.3347 68.0525 12.3885 57.9318 12.4775 49.5384ZM19.8154 83.2584C17.5503 74.3259 22.5684 64.8188 31.4224 62.1687L32.1679 61.9455C47.1217 57.4696 62.973 57.0545 78.0895 60.7428C86.7231 62.8493 91.953 71.7522 90.3052 80.5112C87.5818 94.9884 84.4982 118.041 85.7164 144.164C86.7298 165.897 90.7608 187.65 94.1249 202.629C96.4641 213.045 89.7313 223.694 79.1882 225.501L77.4113 225.805C66.013 227.759 54.4033 228.063 42.9391 226.708C32.9136 225.523 26.2024 215.401 27.8562 205.421C30.1384 191.648 32.1349 171.183 30.2255 146.674C28.147 119.996 23.4198 97.4724 19.8154 83.2584Z" fill="url(#paint1_linear_3_1819)"/>
</g>
<g filter="url(#filter2_di_3_1819)">
<path d="M13.7142 71.7527C13.4477 70.9337 13.9126 70.0482 14.7422 69.8058L53.9948 58.3362C54.2446 58.2632 54.5087 58.2562 54.7611 58.3159L93.0206 67.3607C93.8558 67.5581 94.3574 68.4073 94.1321 69.2387C92.1743 76.4636 84.1912 108.693 86.0231 147.734C87.6392 182.174 97.002 216.657 99.2299 224.45C99.4792 225.322 98.9083 226.215 98.0116 226.366L59.8037 232.776C59.6653 232.799 59.5245 232.803 59.3854 232.787L23.609 228.711C22.6674 228.604 22.0508 227.677 22.314 226.763C24.4019 219.518 31.8347 190.252 28.6771 150.318C25.4709 109.769 15.9995 78.775 13.7142 71.7527Z" fill="url(#paint2_linear_3_1819)"/>
</g>
<g filter="url(#filter3_d_3_1819)">
<g filter="url(#filter4_d_3_1819)">
<path d="M91.8833 31.7594C88.4116 25.106 83.6873 23.4706 80.5029 23.5108C79.4387 23.5242 79.096 24.7503 79.7821 25.5651C85.1986 31.9978 90.2313 42.2669 93.28 49.4995C93.8547 50.863 95.6703 50.6277 95.6841 49.1492C95.7297 44.2684 94.9432 37.6237 91.8833 31.7594Z" fill="white"/>
<path d="M82.9552 26.0608C86.896 31.2777 90.5096 38.1108 93.2309 44.0045C92.8075 40.3659 91.8413 36.3831 89.9526 32.7633C87.759 28.5595 85.1294 26.7511 82.9552 26.0608Z" stroke="white" stroke-width="4.35467" stroke-linecap="round"/>
</g>
</g>
<g filter="url(#filter5_d_3_1819)">
<path d="M12.4204 35.7176C15.2616 28.3593 20.0225 26.151 23.3261 25.8606C24.3859 25.7675 24.8607 26.9505 24.2688 27.8345C19.3503 35.1788 15.2958 46.5762 12.989 54.4512C12.5733 55.8706 10.7363 55.8447 10.5491 54.3776C9.90318 49.3136 9.90413 42.2343 12.4204 35.7176Z" fill="white"/>
<path d="M21.2112 28.5991C17.5904 34.6403 14.533 42.4961 12.3666 49.11C12.3268 45.1439 12.8399 40.6748 14.4513 36.5015C16.3074 31.6946 18.9628 29.5147 21.2112 28.5991Z" stroke="white" stroke-width="4.35467" stroke-linecap="round"/>
</g>
<g filter="url(#filter6_di_3_1819)">
<path fill-rule="evenodd" clip-rule="evenodd" d="M24.6896 55.1773C17.7559 57.3439 12.8778 63.5682 12.6855 70.8197C12.6315 72.8557 12.5824 75.1281 12.5446 77.6197C13.0601 69.962 18.1346 62.9599 25.838 60.7751L29.9076 59.621C46.0745 55.0358 63.1238 54.7047 79.3984 58.6597L81.1304 59.0806C90.5036 61.3584 96.289 70.8758 94.7113 80.4213C92.0755 96.3696 89.0974 121.971 90.4852 151.072C91.5816 174.063 95.9218 197.067 99.7302 213.519C99.8073 213.852 99.8766 214.185 99.9383 214.518C100.313 213.063 100.532 211.548 100.577 209.991C101.048 193.639 101.428 167.553 100.259 141.744C98.8326 110.251 96.7878 83.1698 95.557 68.341C94.9536 61.0702 89.811 55.0457 82.7547 53.233L81.05 52.795C63.5654 48.3033 45.1419 48.7863 27.8493 54.1899L24.6896 55.1773ZM22.4159 220.461C22.4204 219.252 22.5215 218.036 22.7252 216.822C25.274 201.637 27.3509 179.841 25.2582 153.982C22.8693 124.461 17.3561 99.5475 13.1483 83.8324C12.7792 82.454 12.5723 81.0609 12.5167 79.6769C12.3324 95.0397 12.5982 117.853 14.6115 144.647C16.8509 174.451 19.0678 198.868 20.4876 213.676C20.7198 216.098 21.3887 218.385 22.4159 220.461Z" fill="url(#paint3_linear_3_1819)"/>
</g>
<g filter="url(#filter7_ii_3_1819)">
<path fill-rule="evenodd" clip-rule="evenodd" d="M11.0561 55.6389C11.2372 40.5064 20.0006 26.719 33.4636 19.7191C44.8161 13.8165 58.2369 13.1039 70.0398 17.8531C84.5796 23.7036 94.4381 37.3635 95.379 53.0472C95.8039 60.1304 96.2878 68.3002 96.7947 77.0543C96.806 77.2485 96.5511 77.3401 96.4311 77.1871C96.3097 77.0323 96.0666 77.1434 96.0925 77.3384C96.3433 79.2301 96.3183 81.1834 95.9852 83.1364C93.2476 99.186 90.1594 124.875 91.5533 154.059C92.6345 176.695 96.9286 199.34 100.782 215.801C101.028 216.853 101.2 217.908 101.302 218.96C101.272 220.838 101.24 222.655 101.208 224.4C101.132 224.978 101.035 225.552 100.919 226.12C100.904 226.193 100.999 226.237 101.044 226.178C101.086 226.123 101.174 226.153 101.173 226.222C101.069 231.44 100.957 235.952 100.86 239.492C100.718 244.652 97.4806 249.2 92.6693 251.098L90.6856 251.881C71.1479 259.589 49.5922 260.294 29.6986 253.876C25.2051 252.426 21.9908 248.506 21.4885 243.803C21.1156 240.311 20.6348 235.74 20.0807 230.314C20.022 229.739 20.7884 229.424 21.1818 229.846C21.5845 230.279 22.2624 229.844 22.1126 229.272C21.2691 226.051 21.0714 222.623 21.6457 219.222C24.2153 204.002 26.2449 182.483 24.1629 157.066C21.7381 127.464 16.0975 102.473 11.7744 86.6681C11.3327 85.0535 11.1141 83.4175 11.1006 81.7984C11.1002 81.7505 11.036 81.7351 11.0147 81.778C10.9932 81.8213 10.927 81.8059 10.9269 81.7575C10.9043 72.1338 10.9654 63.2197 11.0561 55.6389ZM18.8216 88.8393C16.4064 79.4648 21.7014 69.4196 31.0306 66.7116L31.7844 66.4928C46.8025 62.1334 62.6607 61.7079 77.8316 65.2572C86.9228 67.3841 92.4355 76.764 90.6667 85.9642C87.9006 100.351 84.8769 122.709 86.0558 147.959C87.0348 168.928 90.955 189.912 94.3262 204.688C96.8076 215.563 89.761 226.735 78.7311 228.576L76.9134 228.879C65.5366 230.778 53.9633 231.089 42.525 229.803C32.0508 228.625 25.0371 218.007 26.7843 207.586C29.0673 193.969 30.9886 174.144 29.1209 150.534C27.0841 124.786 22.4577 102.952 18.8216 88.8393Z" fill="url(#paint4_linear_3_1819)"/>
</g>
<g filter="url(#filter8_ii_3_1819)">
<path d="M24.3298 114.581C43.8454 106.098 65.7768 104.985 86.0506 111.451L86.7571 111.677C86.7571 111.677 85.6117 124.891 86.8697 152.807C88.7864 180.519 91.7549 192.872 91.7549 192.872L89.398 193.499C69.4699 198.801 48.5974 199.504 28.3576 195.556C28.3576 195.556 29.9126 174.101 28.9264 155.392C28.0789 139.315 24.3298 114.581 24.3298 114.581Z" fill="url(#paint5_linear_3_1819)"/>
</g>
<defs>
<filter id="filter0_ii_3_1819" x="6.21606" y="1.82343" width="105.198" height="261.763" filterUnits="userSpaceOnUse" color-interpolation-filters="sRGB">
<feFlood flood-opacity="0" result="BackgroundImageFix"/>
<feBlend mode="normal" in="SourceGraphic" in2="BackgroundImageFix" result="shape"/>
<feColorMatrix in="SourceAlpha" type="matrix" values="0 0 0 0 0 0 0 0 0 0 0 0 0 0 0 0 0 0 127 0" result="hardAlpha"/>
<feOffset dx="4.35467" dy="-5.80623"/>
<feGaussianBlur stdDeviation="17.4187"/>
<feComposite in2="hardAlpha" operator="arithmetic" k2="-1" k3="1"/>
<feColorMatrix type="matrix" values="0 0 0 0 0 0 0 0 0 0 0 0 0 0 0 0 0 0 0.07 0"/>
<feBlend mode="normal" in2="shape" result="effect1_innerShadow_3_1819"/>
<feColorMatrix in="SourceAlpha" type="matrix" values="0 0 0 0 0 0 0 0 0 0 0 0 0 0 0 0 0 0 127 0" result="hardAlpha"/>
<feOffset dy="-0.725779"/>
<feGaussianBlur stdDeviation="1.45156"/>
<feComposite in2="hardAlpha" operator="arithmetic" k2="-1" k3="1"/>
<feColorMatrix type="matrix" values="0 0 0 0 0 0 0 0 0 0 0 0 0 0 0 0 0 0 0.25 0"/>
<feBlend mode="normal" in2="effect1_innerShadow_3_1819" result="effect2_innerShadow_3_1819"/>
</filter>
<filter id="filter1_di_3_1819" x="9.46383" y="9.67947" width="91.8597" height="248.661" filterUnits="userSpaceOnUse" color-interpolation-filters="sRGB">
<feFlood flood-opacity="0" result="BackgroundImageFix"/>
<feColorMatrix in="SourceAlpha" type="matrix" values="0 0 0 0 0 0 0 0 0 0 0 0 0 0 0 0 0 0 127 0" result="hardAlpha"/>
<feOffset dy="0.750549"/>
<feGaussianBlur stdDeviation="0.375275"/>
<feColorMatrix type="matrix" values="0 0 0 0 0.925374 0 0 0 0 0.925374 0 0 0 0 0.925374 0 0 0 0.37 0"/>
<feBlend mode="normal" in2="BackgroundImageFix" result="effect1_dropShadow_3_1819"/>
<feBlend mode="normal" in="SourceGraphic" in2="effect1_dropShadow_3_1819" result="shape"/>
<feColorMatrix in="SourceAlpha" type="matrix" values="0 0 0 0 0 0 0 0 0 0 0 0 0 0 0 0 0 0 127 0" result="hardAlpha"/>
<feOffset dx="-2.90311" dy="3.62889"/>
<feGaussianBlur stdDeviation="1.45156"/>
<feComposite in2="hardAlpha" operator="arithmetic" k2="-1" k3="1"/>
<feColorMatrix type="matrix" values="0 0 0 0 0 0 0 0 0 0 0 0 0 0 0 0 0 0 0.8 0"/>
<feBlend mode="normal" in2="shape" result="effect2_innerShadow_3_1819"/>
</filter>
<filter id="filter2_di_3_1819" x="10.7358" y="58.2757" width="89.3033" height="177.424" filterUnits="userSpaceOnUse" color-interpolation-filters="sRGB">
<feFlood flood-opacity="0" result="BackgroundImageFix"/>
<feColorMatrix in="SourceAlpha" type="matrix" values="0 0 0 0 0 0 0 0 0 0 0 0 0 0 0 0 0 0 127 0" result="hardAlpha"/>
<feOffset dy="0.750549"/>
<feGaussianBlur stdDeviation="0.375275"/>
<feColorMatrix type="matrix" values="0 0 0 0 0.925374 0 0 0 0 0.925374 0 0 0 0 0.925374 0 0 0 0.37 0"/>
<feBlend mode="normal" in2="BackgroundImageFix" result="effect1_dropShadow_3_1819"/>
<feBlend mode="normal" in="SourceGraphic" in2="effect1_dropShadow_3_1819" result="shape"/>
<feColorMatrix in="SourceAlpha" type="matrix" values="0 0 0 0 0 0 0 0 0 0 0 0 0 0 0 0 0 0 127 0" result="hardAlpha"/>
<feOffset dx="-2.90312" dy="3.62889"/>
<feGaussianBlur stdDeviation="1.45156"/>
<feComposite in2="hardAlpha" operator="arithmetic" k2="-1" k3="1"/>
<feColorMatrix type="matrix" values="0 0 0 0 0 0 0 0 0 0 0 0 0 0 0 0 0 0 0.8 0"/>
<feBlend mode="normal" in2="shape" result="effect2_innerShadow_3_1819"/>
</filter>
<filter id="filter3_d_3_1819" x="77.975" y="20.6069" width="19.1625" height="29.7945" filterUnits="userSpaceOnUse" color-interpolation-filters="sRGB">
<feFlood flood-opacity="0" result="BackgroundImageFix"/>
<feColorMatrix in="SourceAlpha" type="matrix" values="0 0 0 0 0 0 0 0 0 0 0 0 0 0 0 0 0 0 127 0" result="hardAlpha"/>
<feOffset dy="-1.45156"/>
<feGaussianBlur stdDeviation="0.725779"/>
<feColorMatrix type="matrix" values="0 0 0 0 0 0 0 0 0 0 0 0 0 0 0 0 0 0 0.25 0"/>
<feBlend mode="normal" in2="BackgroundImageFix" result="effect1_dropShadow_3_1819"/>
<feBlend mode="normal" in="SourceGraphic" in2="effect1_dropShadow_3_1819" result="shape"/>
</filter>
<filter id="filter4_d_3_1819" x="78.7007" y="23.51" width="17.711" height="28.3429" filterUnits="userSpaceOnUse" color-interpolation-filters="sRGB">
<feFlood flood-opacity="0" result="BackgroundImageFix"/>
<feColorMatrix in="SourceAlpha" type="matrix" values="0 0 0 0 0 0 0 0 0 0 0 0 0 0 0 0 0 0 127 0" result="hardAlpha"/>
<feOffset dy="0.725779"/>
<feGaussianBlur stdDeviation="0.362889"/>
<feColorMatrix type="matrix" values="0 0 0 0 1 0 0 0 0 1 0 0 0 0 1 0 0 0 0.25 0"/>
<feBlend mode="normal" in2="BackgroundImageFix" result="effect1_dropShadow_3_1819"/>
<feBlend mode="normal" in="SourceGraphic" in2="effect1_dropShadow_3_1819" result="shape"/>
</filter>
<filter id="filter5_d_3_1819" x="8.73643" y="22.9524" width="17.2417" height="32.5447" filterUnits="userSpaceOnUse" color-interpolation-filters="sRGB">
<feFlood flood-opacity="0" result="BackgroundImageFix"/>
<feColorMatrix in="SourceAlpha" type="matrix" values="0 0 0 0 0 0 0 0 0 0 0 0 0 0 0 0 0 0 127 0" result="hardAlpha"/>
<feOffset dy="-1.45156"/>
<feGaussianBlur stdDeviation="0.725779"/>
<feColorMatrix type="matrix" values="0 0 0 0 0 0 0 0 0 0 0 0 0 0 0 0 0 0 0.25 0"/>
<feBlend mode="normal" in2="BackgroundImageFix" result="effect1_dropShadow_3_1819"/>
<feBlend mode="normal" in="SourceGraphic" in2="effect1_dropShadow_3_1819" result="shape"/>
</filter>
<filter id="filter6_di_3_1819" x="9.5649" y="49.7483" width="92.219" height="173.616" filterUnits="userSpaceOnUse" color-interpolation-filters="sRGB">
<feFlood flood-opacity="0" result="BackgroundImageFix"/>
<feColorMatrix in="SourceAlpha" type="matrix" values="0 0 0 0 0 0 0 0 0 0 0 0 0 0 0 0 0 0 127 0" result="hardAlpha"/>
<feOffset dy="0.750549"/>
<feGaussianBlur stdDeviation="0.375275"/>
<feColorMatrix type="matrix" values="0 0 0 0 0.925374 0 0 0 0 0.925374 0 0 0 0 0.925374 0 0 0 0.37 0"/>
<feBlend mode="normal" in2="BackgroundImageFix" result="effect1_dropShadow_3_1819"/>
<feBlend mode="normal" in="SourceGraphic" in2="effect1_dropShadow_3_1819" result="shape"/>
<feColorMatrix in="SourceAlpha" type="matrix" values="0 0 0 0 0 0 0 0 0 0 0 0 0 0 0 0 0 0 127 0" result="hardAlpha"/>
<feOffset dx="-2.90311" dy="3.62889"/>
<feGaussianBlur stdDeviation="1.45156"/>
<feComposite in2="hardAlpha" operator="arithmetic" k2="-1" k3="1"/>
<feColorMatrix type="matrix" values="0 0 0 0 0 0 0 0 0 0 0 0 0 0 0 0 0 0 0.8 0"/>
<feBlend mode="normal" in2="shape" result="effect2_innerShadow_3_1819"/>
</filter>
<filter id="filter7_ii_3_1819" x="10.9221" y="8.92695" width="94.7341" height="249.297" filterUnits="userSpaceOnUse" color-interpolation-filters="sRGB">
<feFlood flood-opacity="0" result="BackgroundImageFix"/>
<feBlend mode="normal" in="SourceGraphic" in2="BackgroundImageFix" result="shape"/>
<feColorMatrix in="SourceAlpha" type="matrix" values="0 0 0 0 0 0 0 0 0 0 0 0 0 0 0 0 0 0 127 0" result="hardAlpha"/>
<feOffset dx="4.35467" dy="-5.80623"/>
<feGaussianBlur stdDeviation="17.4187"/>
<feComposite in2="hardAlpha" operator="arithmetic" k2="-1" k3="1"/>
<feColorMatrix type="matrix" values="0 0 0 0 0 0 0 0 0 0 0 0 0 0 0 0 0 0 0.07 0"/>
<feBlend mode="normal" in2="shape" result="effect1_innerShadow_3_1819"/>
<feColorMatrix in="SourceAlpha" type="matrix" values="0 0 0 0 0 0 0 0 0 0 0 0 0 0 0 0 0 0 127 0" result="hardAlpha"/>
<feOffset dy="-0.725779"/>
<feGaussianBlur stdDeviation="1.45156"/>
<feComposite in2="hardAlpha" operator="arithmetic" k2="-1" k3="1"/>
<feColorMatrix type="matrix" values="0 0 0 0 0 0 0 0 0 0 0 0 0 0 0 0 0 0 0.09 0"/>
<feBlend mode="normal" in2="effect1_innerShadow_3_1819" result="effect2_innerShadow_3_1819"/>
</filter>
<filter id="filter8_ii_3_1819" x="24.3298" y="101.491" width="71.7797" height="96.5824" filterUnits="userSpaceOnUse" color-interpolation-filters="sRGB">
<feFlood flood-opacity="0" result="BackgroundImageFix"/>
<feBlend mode="normal" in="SourceGraphic" in2="BackgroundImageFix" result="shape"/>
<feColorMatrix in="SourceAlpha" type="matrix" values="0 0 0 0 0 0 0 0 0 0 0 0 0 0 0 0 0 0 127 0" result="hardAlpha"/>
<feOffset dx="4.35467" dy="-5.80623"/>
<feGaussianBlur stdDeviation="17.4187"/>
<feComposite in2="hardAlpha" operator="arithmetic" k2="-1" k3="1"/>
<feColorMatrix type="matrix" values="0 0 0 0 0 0 0 0 0 0 0 0 0 0 0 0 0 0 0.07 0"/>
<feBlend mode="normal" in2="shape" result="effect1_innerShadow_3_1819"/>
<feColorMatrix in="SourceAlpha" type="matrix" values="0 0 0 0 0 0 0 0 0 0 0 0 0 0 0 0 0 0 127 0" result="hardAlpha"/>
<feOffset dy="-0.725779"/>
<feGaussianBlur stdDeviation="1.45156"/>
<feComposite in2="hardAlpha" operator="arithmetic" k2="-1" k3="1"/>
<feColorMatrix type="matrix" values="0 0 0 0 0 0 0 0 0 0 0 0 0 0 0 0 0 0 0.25 0"/>
<feBlend mode="normal" in2="effect1_innerShadow_3_1819" result="effect2_innerShadow_3_1819"/>
</filter>
<linearGradient id="paint0_linear_3_1819" x1="53.6918" y1="252.983" x2="-14.3852" y2="240.151" gradientUnits="userSpaceOnUse">
<stop stop-color="#D8D8D8"/>
<stop offset="1" stop-color="white"/>
</linearGradient>
<linearGradient id="paint1_linear_3_1819" x1="122.172" y1="722.729" x2="-96.9178" y2="662.92" gradientUnits="userSpaceOnUse">
<stop stop-color="#E8EAE9"/>
<stop offset="0.498386" stop-color="#707072"/>
<stop offset="1" stop-color="#2F3032"/>
</linearGradient>
<linearGradient id="paint2_linear_3_1819" x1="104.785" y1="565.254" x2="-92.9231" y2="482.901" gradientUnits="userSpaceOnUse">
<stop stop-color="#E8EAE9"/>
<stop offset="0.498386" stop-color="#707072"/>
<stop offset="1" stop-color="#2F3032"/>
</linearGradient>
<linearGradient id="paint3_linear_3_1819" x1="114.908" y1="539.647" x2="-88.0366" y2="453.23" gradientUnits="userSpaceOnUse">
<stop stop-color="#E8EAE9"/>
<stop offset="0.498386" stop-color="#707072"/>
<stop offset="1" stop-color="#2F3032"/>
</linearGradient>
<linearGradient id="paint4_linear_3_1819" x1="55.9408" y1="246.948" x2="-5.06468" y2="237.236" gradientUnits="userSpaceOnUse">
<stop stop-color="#D8D8D8"/>
<stop offset="1" stop-color="white"/>
</linearGradient>
<linearGradient id="paint5_linear_3_1819" x1="83.3211" y1="216.816" x2="14.0658" y2="195.861" gradientUnits="userSpaceOnUse">
<stop stop-color="#D2D2D2"/>
<stop offset="0.350909" stop-color="#CACACA"/>
<stop offset="1" stop-color="#F6F6F6"/>
</linearGradient>
</defs>
</svg>
