<svg width="287" height="167" viewBox="0 0 287 167" fill="none" xmlns="http://www.w3.org/2000/svg">
<g filter="url(#filter0_iii_3_1794)">
<path d="M225.416 13.679C237.987 10.9192 250.85 16.5173 257.654 27.4662L258.135 28.2391C268.08 44.2421 272.383 63.0808 270.358 81.7504C269.02 94.0823 260.168 104.262 248.121 107.297C226.965 112.627 190.972 121.656 149.604 131.876C115.106 140.399 80.1886 147.937 57.4309 152.672C42.5147 155.775 27.5131 147.845 21.4915 133.836L19.4508 129.089C15.088 118.939 12.6118 108.09 12.1436 97.074L12.0459 94.775C11.4017 79.6182 21.4308 66.1138 36.1191 62.2702C56.4155 56.9591 87.8282 48.6413 126.073 38.1908C168.281 26.6575 204.114 18.3555 225.416 13.679Z" fill="url(#paint0_linear_3_1794)"/>
</g>
<path d="M181.87 34.9645C190.776 30.6486 201.895 33.9122 206.514 42.6989L206.891 43.4157C214.412 57.7195 218.092 73.7021 217.57 89.7998C217.261 99.339 208.991 106.762 199.417 106.866C184.251 107.033 160.808 108.58 135.26 115.012C114.033 120.357 93.3979 128.704 79.0667 135.165C68.6586 139.857 56.0364 135.06 51.9413 124.375L51.2629 122.605C46.9925 111.463 44.3047 99.7893 43.2778 87.9236C42.3475 77.174 51.5634 67.9815 62.3709 67.6107C76.6751 67.1199 97.3123 64.9821 121.064 58.1863C146.955 50.7783 168.288 41.5469 181.87 34.9645Z" fill="#A7A5A5"/>
<path fill-rule="evenodd" clip-rule="evenodd" d="M218.567 21.5811C233.143 18.7904 248.115 24.4034 257.618 35.8459C265.99 45.9265 269.45 59.3021 266.905 72.0914C263.903 87.1731 252.633 99.2142 237.737 103.165C230.633 105.049 222.357 107.238 213.445 109.583C213.134 109.664 212.896 109.281 213.094 109.028C213.294 108.773 213.02 108.431 212.716 108.543C210.845 109.227 208.843 109.633 206.773 109.71C190.085 110.332 163.187 112.602 133.55 120.087C110.141 125.999 87.3885 135.238 71.4158 142.482C68.5117 143.8 65.455 144.471 62.4247 144.556C62.3256 144.559 62.2948 144.692 62.3837 144.736C62.4663 144.777 62.4492 144.9 62.3586 144.917C56.9265 145.917 52.2596 146.752 48.658 147.387C43.7582 148.251 38.8375 146.101 36.0783 141.95L34.8809 140.149C23.1983 122.576 18.2047 101.441 20.8083 80.587C21.3725 76.0677 24.4814 72.3052 28.8334 70.9389C32.7027 69.7241 38.0168 68.0656 44.4332 66.0876C44.81 65.9715 45.1057 66.4705 44.8403 66.7621C44.5794 67.0488 44.8991 67.4722 45.2625 67.3372C47.544 66.4891 49.9813 65.9875 52.4921 65.9018C68.4596 65.357 91.2619 62.9699 117.433 55.4452C147.306 46.856 171.736 36.0371 186.805 28.5738C187.546 28.2068 188.303 27.8918 189.07 27.6278C189.111 27.6134 189.105 27.5522 189.061 27.5479C189.013 27.5433 189.01 27.4733 189.056 27.4636C200.017 25.1883 210.153 23.1921 218.567 21.5811ZM186.33 35.7462C194.805 31.6723 205.328 34.7657 209.771 43.0836L210.146 43.7839C217.65 57.8323 221.274 73.6005 220.647 89.4647C220.288 98.5253 212.444 105.558 203.351 105.684C188.321 105.892 164.643 107.476 138.765 113.984C117.236 119.398 96.298 127.833 81.9988 134.231C72.0565 138.679 60.0434 134.102 56.1016 123.924L55.4372 122.209C51.1757 111.206 48.5208 99.6569 47.5543 87.9177C46.709 77.6517 55.4734 68.8904 65.789 68.5235C80.0243 68.0171 100.895 65.8699 125.018 58.9977C151.278 51.5171 172.845 42.2289 186.33 35.7462Z" fill="#181818"/>
<g filter="url(#filter1_di_3_1794)">
<path d="M196.62 27.3047C197.377 26.8769 198.345 27.1606 198.751 27.9328L218.179 64.8845C218.301 65.117 218.361 65.3768 218.353 65.6385L217.054 105.753C217.026 106.619 216.288 107.286 215.42 107.229C207.836 106.735 173.964 105.267 135.26 115.012C101.116 123.609 68.502 139.975 61.1948 143.763C60.3821 144.185 59.3855 143.798 59.0571 142.941L44.9022 106.009C44.8515 105.877 44.8196 105.738 44.8074 105.598L41.6377 68.9715C41.5552 68.0184 42.3494 67.2226 43.3057 67.3003C50.9414 67.9203 81.7328 69.4398 121.064 58.1863C161 46.7597 190.094 30.9946 196.62 27.3047Z" fill="url(#paint1_linear_3_1794)"/>
</g>
<g filter="url(#filter2_d_3_1794)">
<g filter="url(#filter3_d_3_1794)">
<path d="M252.428 97.3915C258.394 92.5598 259.061 87.4902 258.367 84.3153C258.138 83.2658 256.856 83.1735 256.188 84.0159C250.841 90.7571 241.547 97.8967 234.922 102.413C233.688 103.254 234.283 105.005 235.749 104.725C240.646 103.788 247.162 101.656 252.428 97.3915Z" fill="white"/>
<path d="M256.35 87.2386C251.895 92.2904 245.711 97.3471 240.32 101.289C243.916 100.129 247.764 98.3422 251.048 95.6829C254.852 92.6023 256.118 89.5692 256.35 87.2386Z" stroke="white" stroke-width="4.39582" stroke-linecap="round"/>
</g>
</g>
<g filter="url(#filter4_d_3_1794)">
<path d="M232.379 18.7252C240.333 20.0799 243.501 24.412 244.452 27.6598C244.753 28.6904 243.677 29.3967 242.684 28.9874C234.323 25.5415 222.052 23.7918 213.7 23.0821C212.213 22.9557 211.87 21.1318 213.284 20.6509C218.219 18.9716 225.326 17.5238 232.379 18.7252Z" fill="white"/>
<path d="M241.335 26.1201C234.508 23.6938 225.937 22.2176 218.834 21.3906C222.826 20.5273 227.454 20.1161 232.009 20.8919C237.247 21.7841 239.973 24.0347 241.335 26.1201Z" stroke="white" stroke-width="4.39582" stroke-linecap="round"/>
</g>
<g filter="url(#filter5_di_3_1794)">
<path fill-rule="evenodd" clip-rule="evenodd" d="M215.339 34.8191C211.806 28.3931 204.667 24.8144 197.453 26.0751C195.606 26.3981 193.564 26.7644 191.342 27.1762C198.791 26.4643 206.355 30.0764 209.943 37.0339L212.144 41.3006C219.919 56.3773 223.662 73.1791 223.009 90.073L222.92 92.3593C222.544 102.089 214.292 109.719 204.532 110.065C188.061 110.647 161.761 112.842 132.825 120.151C110.055 125.903 87.9281 134.901 72.2459 142.041C71.9285 142.186 71.6093 142.323 71.2884 142.452C72.8197 142.532 74.3796 142.444 75.9453 142.174C92.3941 139.334 118.558 134.432 144.132 128.037C175.432 120.21 202.167 112.66 216.719 108.433C223.791 106.379 228.717 100.086 229.097 92.7413L229.212 90.5151C230.154 72.3165 225.985 54.1856 217.175 38.1592L215.339 34.8191ZM49.6487 66.1279C50.8581 65.8877 52.0958 65.7423 53.3513 65.7003C69.0523 65.1746 91.271 62.8381 116.708 55.5093C145.865 47.1086 169.74 36.4982 184.591 29.104C185.664 28.5696 186.77 28.1444 187.894 27.8249C172.503 30.7624 149.967 35.62 123.887 42.972C94.5345 51.2463 70.5647 58.4076 56.0435 62.8258C53.6685 63.5484 51.5162 64.6804 49.6487 66.1279Z" fill="url(#paint2_linear_3_1794)"/>
</g>
<g filter="url(#filter6_iii_3_1794)">
<path fill-rule="evenodd" clip-rule="evenodd" d="M212.707 21.0441C227.877 18.161 243.44 24.1333 253.166 36.1797C261.368 46.3377 264.798 59.6149 262.438 72.3801C259.532 88.1055 247.867 100.73 232.373 104.847C225.133 106.771 216.744 108.993 207.752 111.361C207.955 111.131 208.152 110.896 208.341 110.655C206.374 111.393 204.261 111.824 202.075 111.89C185.482 112.392 159.071 114.492 130.051 121.825C107.633 127.49 85.8553 136.369 70.1735 143.556C69.6942 143.775 69.2109 143.978 68.7242 144.164C65.6249 144.743 62.684 145.284 59.9411 145.783C59.7794 145.783 59.6179 145.781 59.4566 145.778C59.5019 145.801 59.5474 145.823 59.593 145.846C54.678 146.738 50.412 147.492 47.0271 148.081C41.8381 148.984 36.6343 146.667 33.7617 142.24L32.5773 140.414C20.9124 122.436 15.8425 101.022 18.2332 79.8276C18.7732 75.0403 22.0425 71.032 26.6443 69.5774C30.4134 68.386 35.4708 66.797 41.5223 64.9183C40.4767 66.0764 39.565 67.3425 38.7956 68.6924C42.3257 66.5481 46.4308 65.2477 50.729 65.1078C66.4701 64.5957 88.4012 62.2683 113.399 55.0394C142.631 46.5859 166.558 35.831 181.476 28.3027C182.984 27.5422 184.557 26.9976 186.154 26.6593C185.879 26.5846 185.602 26.5173 185.322 26.4577C195.414 24.3819 204.782 22.5501 212.707 21.0441ZM180.55 35.8825C189.436 31.569 200.554 34.8303 205.151 43.6117L205.522 44.3212C212.923 58.4575 216.559 74.2305 216.082 90.121C215.796 99.6434 207.531 107.056 197.972 107.15C183.024 107.297 160.053 108.8 135.041 115.091C114.268 120.317 94.0772 128.486 79.9831 134.849C69.6093 139.533 57.01 134.748 52.9355 124.09L52.264 122.334C48.0613 111.341 45.4072 99.8297 44.3776 88.1302C43.4348 77.4169 52.6333 68.2528 63.4084 67.89C77.4882 67.416 97.7033 65.3232 120.937 58.6746C146.274 51.4241 167.172 42.3765 180.55 35.8825Z" fill="url(#paint3_linear_3_1794)"/>
</g>
<g filter="url(#filter7_ii_3_1794)">
<path d="M155.846 46.3113C168.282 64.1103 173.835 85.8178 171.474 107.402L171.392 108.154C171.392 108.154 157.945 109.684 130.282 116.595C102.956 124.123 91.2039 129.593 91.2039 129.593L90.0995 127.363C80.762 108.507 75.8322 87.776 75.6825 66.7355C75.6825 66.7355 97.4538 63.9462 115.964 59.1718C131.87 55.0689 155.846 46.3113 155.846 46.3113Z" fill="url(#paint4_linear_3_1794)"/>
</g>
<defs>
<filter id="filter0_iii_3_1794" x="12.0165" y="6.84209" width="263.435" height="148.034" filterUnits="userSpaceOnUse" color-interpolation-filters="sRGB">
<feFlood flood-opacity="0" result="BackgroundImageFix"/>
<feBlend mode="normal" in="SourceGraphic" in2="BackgroundImageFix" result="shape"/>
<feColorMatrix in="SourceAlpha" type="matrix" values="0 0 0 0 0 0 0 0 0 0 0 0 0 0 0 0 0 0 127 0" result="hardAlpha"/>
<feOffset dx="4.60452" dy="-6.13935"/>
<feGaussianBlur stdDeviation="18.4181"/>
<feComposite in2="hardAlpha" operator="arithmetic" k2="-1" k3="1"/>
<feColorMatrix type="matrix" values="0 0 0 0 0 0 0 0 0 0 0 0 0 0 0 0 0 0 0.07 0"/>
<feBlend mode="normal" in2="shape" result="effect1_innerShadow_3_1794"/>
<feColorMatrix in="SourceAlpha" type="matrix" values="0 0 0 0 0 0 0 0 0 0 0 0 0 0 0 0 0 0 127 0" result="hardAlpha"/>
<feOffset dy="-0.767419"/>
<feGaussianBlur stdDeviation="1.53484"/>
<feComposite in2="hardAlpha" operator="arithmetic" k2="-1" k3="1"/>
<feColorMatrix type="matrix" values="0 0 0 0 0 0 0 0 0 0 0 0 0 0 0 0 0 0 0.25 0"/>
<feBlend mode="normal" in2="effect1_innerShadow_3_1794" result="effect2_innerShadow_3_1794"/>
<feColorMatrix in="SourceAlpha" type="matrix" values="0 0 0 0 0 0 0 0 0 0 0 0 0 0 0 0 0 0 127 0" result="hardAlpha"/>
<feOffset dy="3.06968"/>
<feGaussianBlur stdDeviation="0.767419"/>
<feComposite in2="hardAlpha" operator="arithmetic" k2="-1" k3="1"/>
<feColorMatrix type="matrix" values="0 0 0 0 0 0 0 0 0 0 0 0 0 0 0 0 0 0 0.25 0"/>
<feBlend mode="normal" in2="effect2_innerShadow_3_1794" result="effect3_innerShadow_3_1794"/>
</filter>
<filter id="filter1_di_3_1794" x="38.7012" y="27.1052" width="180.41" height="119.76" filterUnits="userSpaceOnUse" color-interpolation-filters="sRGB">
<feFlood flood-opacity="0" result="BackgroundImageFix"/>
<feColorMatrix in="SourceAlpha" type="matrix" values="0 0 0 0 0 0 0 0 0 0 0 0 0 0 0 0 0 0 127 0" result="hardAlpha"/>
<feOffset dy="0.757642"/>
<feGaussianBlur stdDeviation="0.378821"/>
<feColorMatrix type="matrix" values="0 0 0 0 0.925374 0 0 0 0 0.925374 0 0 0 0 0.925374 0 0 0 0.37 0"/>
<feBlend mode="normal" in2="BackgroundImageFix" result="effect1_dropShadow_3_1794"/>
<feBlend mode="normal" in="SourceGraphic" in2="effect1_dropShadow_3_1794" result="shape"/>
<feColorMatrix in="SourceAlpha" type="matrix" values="0 0 0 0 0 0 0 0 0 0 0 0 0 0 0 0 0 0 127 0" result="hardAlpha"/>
<feOffset dx="-2.93055" dy="3.66319"/>
<feGaussianBlur stdDeviation="1.46527"/>
<feComposite in2="hardAlpha" operator="arithmetic" k2="-1" k3="1"/>
<feColorMatrix type="matrix" values="0 0 0 0 0 0 0 0 0 0 0 0 0 0 0 0 0 0 0.8 0"/>
<feBlend mode="normal" in2="shape" result="effect2_innerShadow_3_1794"/>
</filter>
<filter id="filter2_d_3_1794" x="232.789" y="80.5179" width="27.2645" height="24.2369" filterUnits="userSpaceOnUse" color-interpolation-filters="sRGB">
<feFlood flood-opacity="0" result="BackgroundImageFix"/>
<feColorMatrix in="SourceAlpha" type="matrix" values="0 0 0 0 0 0 0 0 0 0 0 0 0 0 0 0 0 0 127 0" result="hardAlpha"/>
<feOffset dy="-1.46528"/>
<feGaussianBlur stdDeviation="0.732638"/>
<feColorMatrix type="matrix" values="0 0 0 0 0 0 0 0 0 0 0 0 0 0 0 0 0 0 0.25 0"/>
<feBlend mode="normal" in2="BackgroundImageFix" result="effect1_dropShadow_3_1794"/>
<feBlend mode="normal" in="SourceGraphic" in2="effect1_dropShadow_3_1794" result="shape"/>
</filter>
<filter id="filter3_d_3_1794" x="233.522" y="83.4485" width="25.7993" height="22.7717" filterUnits="userSpaceOnUse" color-interpolation-filters="sRGB">
<feFlood flood-opacity="0" result="BackgroundImageFix"/>
<feColorMatrix in="SourceAlpha" type="matrix" values="0 0 0 0 0 0 0 0 0 0 0 0 0 0 0 0 0 0 127 0" result="hardAlpha"/>
<feOffset dy="0.732637"/>
<feGaussianBlur stdDeviation="0.366319"/>
<feColorMatrix type="matrix" values="0 0 0 0 1 0 0 0 0 1 0 0 0 0 1 0 0 0 0.25 0"/>
<feBlend mode="normal" in2="BackgroundImageFix" result="effect1_dropShadow_3_1794"/>
<feBlend mode="normal" in="SourceGraphic" in2="effect1_dropShadow_3_1794" result="shape"/>
</filter>
<filter id="filter4_d_3_1794" x="210.92" y="15.3522" width="35.0483" height="13.7533" filterUnits="userSpaceOnUse" color-interpolation-filters="sRGB">
<feFlood flood-opacity="0" result="BackgroundImageFix"/>
<feColorMatrix in="SourceAlpha" type="matrix" values="0 0 0 0 0 0 0 0 0 0 0 0 0 0 0 0 0 0 127 0" result="hardAlpha"/>
<feOffset dy="-1.46527"/>
<feGaussianBlur stdDeviation="0.732637"/>
<feColorMatrix type="matrix" values="0 0 0 0 0 0 0 0 0 0 0 0 0 0 0 0 0 0 0.25 0"/>
<feBlend mode="normal" in2="BackgroundImageFix" result="effect1_dropShadow_3_1794"/>
<feBlend mode="normal" in="SourceGraphic" in2="effect1_dropShadow_3_1794" result="shape"/>
</filter>
<filter id="filter5_di_3_1794" x="46.7182" y="25.8242" width="183.382" height="119.587" filterUnits="userSpaceOnUse" color-interpolation-filters="sRGB">
<feFlood flood-opacity="0" result="BackgroundImageFix"/>
<feColorMatrix in="SourceAlpha" type="matrix" values="0 0 0 0 0 0 0 0 0 0 0 0 0 0 0 0 0 0 127 0" result="hardAlpha"/>
<feOffset dy="0.757642"/>
<feGaussianBlur stdDeviation="0.378821"/>
<feColorMatrix type="matrix" values="0 0 0 0 0.925374 0 0 0 0 0.925374 0 0 0 0 0.925374 0 0 0 0.37 0"/>
<feBlend mode="normal" in2="BackgroundImageFix" result="effect1_dropShadow_3_1794"/>
<feBlend mode="normal" in="SourceGraphic" in2="effect1_dropShadow_3_1794" result="shape"/>
<feColorMatrix in="SourceAlpha" type="matrix" values="0 0 0 0 0 0 0 0 0 0 0 0 0 0 0 0 0 0 127 0" result="hardAlpha"/>
<feOffset dx="-2.93055" dy="3.66319"/>
<feGaussianBlur stdDeviation="1.46527"/>
<feComposite in2="hardAlpha" operator="arithmetic" k2="-1" k3="1"/>
<feColorMatrix type="matrix" values="0 0 0 0 0 0 0 0 0 0 0 0 0 0 0 0 0 0 0.8 0"/>
<feBlend mode="normal" in2="shape" result="effect2_innerShadow_3_1794"/>
</filter>
<filter id="filter6_iii_3_1794" x="17.6549" y="18.7928" width="245.514" height="132.551" filterUnits="userSpaceOnUse" color-interpolation-filters="sRGB">
<feFlood flood-opacity="0" result="BackgroundImageFix"/>
<feBlend mode="normal" in="SourceGraphic" in2="BackgroundImageFix" result="shape"/>
<feColorMatrix in="SourceAlpha" type="matrix" values="0 0 0 0 0 0 0 0 0 0 0 0 0 0 0 0 0 0 127 0" result="hardAlpha"/>
<feOffset dy="4.60451"/>
<feGaussianBlur stdDeviation="1.53484"/>
<feComposite in2="hardAlpha" operator="arithmetic" k2="-1" k3="1"/>
<feColorMatrix type="matrix" values="0 0 0 0 0.00392157 0 0 0 0 0.00392157 0 0 0 0 0.00392157 0 0 0 0.2 0"/>
<feBlend mode="normal" in2="shape" result="effect1_innerShadow_3_1794"/>
<feColorMatrix in="SourceAlpha" type="matrix" values="0 0 0 0 0 0 0 0 0 0 0 0 0 0 0 0 0 0 127 0" result="hardAlpha"/>
<feOffset dy="-0.767419"/>
<feGaussianBlur stdDeviation="1.53484"/>
<feComposite in2="hardAlpha" operator="arithmetic" k2="-1" k3="1"/>
<feColorMatrix type="matrix" values="0 0 0 0 0 0 0 0 0 0 0 0 0 0 0 0 0 0 0.25 0"/>
<feBlend mode="normal" in2="effect1_innerShadow_3_1794" result="effect2_innerShadow_3_1794"/>
<feColorMatrix in="SourceAlpha" type="matrix" values="0 0 0 0 0 0 0 0 0 0 0 0 0 0 0 0 0 0 127 0" result="hardAlpha"/>
<feOffset dy="-1.53484"/>
<feGaussianBlur stdDeviation="1.53484"/>
<feComposite in2="hardAlpha" operator="arithmetic" k2="-1" k3="1"/>
<feColorMatrix type="matrix" values="0 0 0 0 1 0 0 0 0 1 0 0 0 0 1 0 0 0 0.25 0"/>
<feBlend mode="normal" in2="effect2_innerShadow_3_1794" result="effect3_innerShadow_3_1794"/>
</filter>
<filter id="filter7_ii_3_1794" x="75.6825" y="40.1719" width="100.928" height="89.4211" filterUnits="userSpaceOnUse" color-interpolation-filters="sRGB">
<feFlood flood-opacity="0" result="BackgroundImageFix"/>
<feBlend mode="normal" in="SourceGraphic" in2="BackgroundImageFix" result="shape"/>
<feColorMatrix in="SourceAlpha" type="matrix" values="0 0 0 0 0 0 0 0 0 0 0 0 0 0 0 0 0 0 127 0" result="hardAlpha"/>
<feOffset dx="4.60451" dy="-6.13935"/>
<feGaussianBlur stdDeviation="18.4181"/>
<feComposite in2="hardAlpha" operator="arithmetic" k2="-1" k3="1"/>
<feColorMatrix type="matrix" values="0 0 0 0 0 0 0 0 0 0 0 0 0 0 0 0 0 0 0.07 0"/>
<feBlend mode="normal" in2="shape" result="effect1_innerShadow_3_1794"/>
<feColorMatrix in="SourceAlpha" type="matrix" values="0 0 0 0 0 0 0 0 0 0 0 0 0 0 0 0 0 0 127 0" result="hardAlpha"/>
<feOffset dy="-0.767419"/>
<feGaussianBlur stdDeviation="1.53484"/>
<feComposite in2="hardAlpha" operator="arithmetic" k2="-1" k3="1"/>
<feColorMatrix type="matrix" values="0 0 0 0 0 0 0 0 0 0 0 0 0 0 0 0 0 0 0.25 0"/>
<feBlend mode="normal" in2="effect1_innerShadow_3_1794" result="effect2_innerShadow_3_1794"/>
</filter>
<linearGradient id="paint0_linear_3_1794" x1="21.7115" y1="99.9429" x2="31.8842" y2="7.12662" gradientUnits="userSpaceOnUse">
<stop stop-color="#3D3D3D"/>
<stop offset="0.628054" stop-color="#737373"/>
<stop offset="1" stop-color="#B8B8B8"/>
</linearGradient>
<linearGradient id="paint1_linear_3_1794" x1="-278.486" y1="218.317" x2="-236.161" y2="3.92198" gradientUnits="userSpaceOnUse">
<stop stop-color="#E8EAE9"/>
<stop offset="0.498386" stop-color="#707072"/>
<stop offset="1" stop-color="#2F3032"/>
</linearGradient>
<linearGradient id="paint2_linear_3_1794" x1="-250.905" y1="223.275" x2="-205.595" y2="2.80619" gradientUnits="userSpaceOnUse">
<stop stop-color="#E8EAE9"/>
<stop offset="0.498386" stop-color="#707072"/>
<stop offset="1" stop-color="#2F3032"/>
</linearGradient>
<linearGradient id="paint3_linear_3_1794" x1="28.8796" y1="101.257" x2="34.3403" y2="20.2441" gradientUnits="userSpaceOnUse">
<stop stop-color="#3D3D3D"/>
<stop offset="0.628054" stop-color="#737373"/>
<stop offset="1" stop-color="#B8B8B8"/>
</linearGradient>
<linearGradient id="paint4_linear_3_1794" x1="94.1936" y1="116.828" x2="172.644" y2="25.1576" gradientUnits="userSpaceOnUse">
<stop stop-color="#3D3D3D"/>
<stop offset="0.287417" stop-color="#4D4D4D"/>
<stop offset="0.432494" stop-color="#585858"/>
<stop offset="0.682295" stop-color="#737373"/>
<stop offset="1" stop-color="#A8A8A8"/>
</linearGradient>
</defs>
</svg>
